/* XPM */
static const char * const GreenLEDOn_xpm[] = {
"64 64 75 1",
" 	c None",
".	c #00FF0B",
"+	c #00FF0A",
"@	c #00FF0C",
"#	c #1BFF25",
"$	c #65FF6C",
"%	c #8CFF91",
"&	c #A6FFAA",
"*	c #AAFFAE",
"=	c #6FFF75",
"-	c #24FF2D",
";	c #07FF12",
">	c #61FF68",
",	c #C9FFCB",
"'	c #FEFFFE",
")	c #FFFFFF",
"!	c #FCFFFC",
"~	c #9BFF9F",
"{	c #0AFF15",
"]	c #02FF0D",
"^	c #68FF6F",
"/	c #E6FFE7",
"(	c #B3FFB6",
"_	c #03FF0E",
":	c #27FF30",
"<	c #C3FFC6",
"[	c #56FF5D",
"}	c #4FFF57",
"|	c #F1FFF2",
"1	c #BBFFBE",
"2	c #71FF77",
"3	c #E4FFE5",
"4	c #69FF6F",
"5	c #EAFFEB",
"6	c #4BFF53",
"7	c #FDFFFD",
"8	c #CDFFCF",
"9	c #EBFFEC",
"0	c #96FF9B",
"a	c #ADFFB1",
"b	c #40FF48",
"c	c #38FF41",
"d	c #CEFFD0",
"e	c #ABFFAF",
"f	c #42FF4A",
"g	c #0EFF18",
"h	c #F7FFF7",
"i	c #95FF9A",
"j	c #41FF49",
"k	c #D5FFD7",
"l	c #5FFF66",
"m	c #DDFFDE",
"n	c #5DFF64",
"o	c #E3FFE4",
"p	c #25FF2E",
"q	c #3AFF42",
"r	c #C4FFC7",
"s	c #18FF22",
"t	c #DBFFDD",
"u	c #FBFFFB",
"v	c #89FF8E",
"w	c #06FF11",
"x	c #C5FFC7",
"y	c #31FF3A",
"z	c #F8FFF8",
"A	c #AEFFB1",
"B	c #3CFF44",
"C	c #5BFF62",
"D	c #A0FFA4",
"E	c #BFFFC2",
"F	c #CCFFCE",
"G	c #B8FFBB",
"H	c #92FF97",
"I	c #55FF5C",
"J	c #0DFF17",
"                          .+.@....@..                           ",
"                      @+..................                      ",
"                   @........................                    ",
"                 @............................+                 ",
"               .................................                ",
"              ....................................              ",
"            @......................................             ",
"           @........................................@           ",
"          ...........................................+          ",
"         ...............#$%&*&=-......................@         ",
"        .............;>,'))))))!~{......................        ",
"       +...........]^/)))))))))))(_.....................        ",
"       ...........:<))))))))))))))[......................       ",
"      ...........}|)))))))))))))))1.......................      ",
"     ...........2'))))))))))))))))3........................     ",
"    ...........4')))))))))))))))))5........................     ",
"    ..........67))))))))))))))))))8.........................    ",
"   @.........#9)))))))))))))))))))0.........................    ",
"   ..........a))))))))))))))))))))b..........................   ",
"  ..........c')))))))))))))))))))d]..........................   ",
"  ..........e))))))))))))))))))))f............................  ",
"  .........gh)))))))))))))))))))i.............................  ",
" ..........j)))))))))))))))))))k{.............................@ ",
" ..........l))))))))))))))))))m#............................... ",
" ..........n)))))))))))))))))op................................ ",
"+..........q))))))))))))))))rs................................. ",
"+.........._t)))))))))))))uvw.................................. ",
"............6u)))))))))))xy.....................................",
".............}3)))))))zAB......................................@",
"..............{CDEFGHIJ........................................@",
"................................................................",
"................................................................",
"................................................................",
"................................................................",
"................................................................",
"................................................................",
"................................................................",
"@..............................................................+",
"............................................................... ",
" .............................................................. ",
" .............................................................. ",
" @............................................................+ ",
"  ............................................................  ",
"  ............................................................  ",
"  @..........................................................   ",
"   ..........................................................   ",
"   .........................................................@   ",
"    ........................................................    ",
"    .......................................................     ",
"     ......................................................     ",
"      ....................................................      ",
"      +..................................................       ",
"       ..................................................       ",
"        ...............................................@        ",
"         ..............................................         ",
"          ............................................          ",
"           ..........................................           ",
"            .......................................             ",
"              ....................................              ",
"               ................................+                ",
"                 ..............................                 ",
"                   .........................+                   ",
"                      ....................                      ",
"                         @+...........                          "};
