/* XPM */
static const char * const LEDOff_xpm[] = {
"64 64 67 1",
" 	c None",
".	c #5B5B5B",
"+	c #5C5C5C",
"@	c #5A5A5A",
"#	c #6C6C6C",
"$	c #9C9C9C",
"%	c #B5B5B5",
"&	c #C6C6C6",
"*	c #C8C8C8",
"=	c #A2A2A2",
"-	c #727272",
";	c #5F5F5F",
">	c #999999",
",	c #DCDCDC",
"'	c #FEFEFE",
")	c #FFFFFF",
"!	c #FDFDFD",
"~	c #BFBFBF",
"{	c #616161",
"]	c #9E9E9E",
"^	c #EFEFEF",
"/	c #CECECE",
"(	c #5D5D5D",
"_	c #747474",
":	c #D8D8D8",
"<	c #929292",
"[	c #8E8E8E",
"}	c #F6F6F6",
"|	c #D3D3D3",
"1	c #A4A4A4",
"2	c #EEEEEE",
"3	c #9F9F9F",
"4	c #F1F1F1",
"5	c #8B8B8B",
"6	c #DFDFDF",
"7	c #F2F2F2",
"8	c #BBBBBB",
"9	c #CACACA",
"0	c #848484",
"a	c #7F7F7F",
"b	c #C9C9C9",
"c	c #858585",
"d	c #646464",
"e	c #FAFAFA",
"f	c #E4E4E4",
"g	c #989898",
"h	c #E9E9E9",
"i	c #979797",
"j	c #EDEDED",
"k	c #737373",
"l	c #808080",
"m	c #D9D9D9",
"n	c #6A6A6A",
"o	c #E8E8E8",
"p	c #FCFCFC",
"q	c #B3B3B3",
"r	c #DADADA",
"s	c #7B7B7B",
"t	c #CBCBCB",
"u	c #828282",
"v	c #969696",
"w	c #C2C2C2",
"x	c #D6D6D6",
"y	c #DEDEDE",
"z	c #D1D1D1",
"A	c #B9B9B9",
"B	c #636363",
"                          ..........+                           ",
"                      ++..................                      ",
"                   @........................                    ",
"                 .............................@                 ",
"               +................................                ",
"              +...................................              ",
"            +......................................             ",
"           @........................................@           ",
"          @...........................................          ",
"         ...............#$%&*&=-......................@         ",
"        .............;>,'))))))!~{......................        ",
"       @...........+]^)))))))))))/(.....................        ",
"       ..........._:))))))))))))))<......................       ",
"      ...........[})))))))))))))))|.......................      ",
"     ...........1'))))))))))))))))2........................     ",
"    +..........3')))))))))))))))))4........................     ",
"    ..........5'))))))))))))))))))6.........................    ",
"   ..........#7)))))))))))))))))))8.........................    ",
"   ..........9))))))))))))))))))))0..........................   ",
"  ..........a')))))))))))))))))))6+..........................   ",
"  ..........b))))))))))))))))))))c...........................+  ",
"  .........de)))))))))))))))))))8.............................  ",
" ..........c)))))))))))))))))))f{.............................. ",
" ..........g))))))))))))))))))h#............................... ",
" ..........i)))))))))))))))))jk................................ ",
"@..........l))))))))))))))))mn................................. ",
"@..........(o)))))))))))))pq;.................................. ",
"............5p)))))))))))rs....................................@",
".............[2)))))))etu.......................................",
"..............{vwxyzA<B.........................................",
"...............................................................+",
"................................................................",
"................................................................",
"................................................................",
"................................................................",
"................................................................",
"................................................................",
"...............................................................@",
"............................................................... ",
" .............................................................. ",
" .............................................................. ",
" .............................................................@ ",
"  ............................................................  ",
"  @...........................................................  ",
"  ...........................................................   ",
"   ..........................................................   ",
"   .........................................................@   ",
"    ........................................................    ",
"    .......................................................     ",
"     ......................................................     ",
"      ....................................................      ",
"      +..................................................       ",
"       +.................................................       ",
"        ................................................        ",
"         ..............................................         ",
"          +...........................................          ",
"           .........................................+           ",
"            +......................................             ",
"              ....................................              ",
"               .................................                ",
"                 .............................@                 ",
"                   .@.......................@                   ",
"                      ....................                      ",
"                         .@........@..                          "};
