/* XPM */
static const char * const RedLEDOn_xpm[] = {
"64 64 73 1",
" 	c None",
".	c #FF0000",
"+	c #FF1B1B",
"@	c #FF6565",
"#	c #FF8C8C",
"$	c #FFA6A6",
"%	c #FFAAAA",
"&	c #FF6F6F",
"*	c #FF2424",
"=	c #FF0707",
"-	c #FF6161",
";	c #FFC9C9",
">	c #FFFEFE",
",	c #FFFFFF",
"'	c #FFFCFC",
")	c #FF9B9B",
"!	c #FF0A0A",
"~	c #FF0202",
"{	c #FF6868",
"]	c #FFE6E6",
"^	c #FFB3B3",
"/	c #FF0303",
"(	c #FF2727",
"_	c #FFC3C3",
":	c #FF5656",
"<	c #FF4F4F",
"[	c #FFF1F1",
"}	c #FFBBBB",
"|	c #FF7171",
"1	c #FFE4E4",
"2	c #FF6969",
"3	c #FFEAEA",
"4	c #FF4B4B",
"5	c #FFFDFD",
"6	c #FFCDCD",
"7	c #FFEBEB",
"8	c #FF9696",
"9	c #FFADAD",
"0	c #FF4040",
"a	c #FF3838",
"b	c #FFCECE",
"c	c #FFABAB",
"d	c #FF4242",
"e	c #FF0E0E",
"f	c #FFF7F7",
"g	c #FF9595",
"h	c #FF4141",
"i	c #FFD5D5",
"j	c #FF5F5F",
"k	c #FFDDDD",
"l	c #FF5D5D",
"m	c #FFE3E3",
"n	c #FF2525",
"o	c #FF3A3A",
"p	c #FFC4C4",
"q	c #FF1818",
"r	c #FFDBDB",
"s	c #FFFBFB",
"t	c #FF8989",
"u	c #FF0606",
"v	c #FFC5C5",
"w	c #FF3131",
"x	c #FFF8F8",
"y	c #FFAEAE",
"z	c #FF3C3C",
"A	c #FF5B5B",
"B	c #FFA0A0",
"C	c #FFBFBF",
"D	c #FFCCCC",
"E	c #FFB8B8",
"F	c #FF9292",
"G	c #FF5555",
"H	c #FF0D0D",
"                          ...........                           ",
"                      ....................                      ",
"                   .........................                    ",
"                 ..............................                 ",
"               .................................                ",
"              ....................................              ",
"            .......................................             ",
"           ..........................................           ",
"          ............................................          ",
"         ...............+@#$%$&*.......................         ",
"        .............=-;>,,,,,,')!......................        ",
"       ............~{],,,,,,,,,,,^/.....................        ",
"       ...........(_,,,,,,,,,,,,,,:......................       ",
"      ...........<[,,,,,,,,,,,,,,,}.......................      ",
"     ...........|>,,,,,,,,,,,,,,,,1........................     ",
"    ...........2>,,,,,,,,,,,,,,,,,3........................     ",
"    ..........45,,,,,,,,,,,,,,,,,,6.........................    ",
"   ..........+7,,,,,,,,,,,,,,,,,,,8.........................    ",
"   ..........9,,,,,,,,,,,,,,,,,,,,0..........................   ",
"  ..........a>,,,,,,,,,,,,,,,,,,,b~..........................   ",
"  ..........c,,,,,,,,,,,,,,,,,,,,d............................  ",
"  .........ef,,,,,,,,,,,,,,,,,,,g.............................  ",
" ..........h,,,,,,,,,,,,,,,,,,,i!.............................. ",
" ..........j,,,,,,,,,,,,,,,,,,k+............................... ",
" ..........l,,,,,,,,,,,,,,,,,mn................................ ",
"...........o,,,,,,,,,,,,,,,,pq................................. ",
".........../r,,,,,,,,,,,,,stu.................................. ",
"............4s,,,,,,,,,,,vw.....................................",
".............<1,,,,,,,xyz.......................................",
"..............!ABCDEFGH.........................................",
"................................................................",
"................................................................",
"................................................................",
"................................................................",
"................................................................",
"................................................................",
"................................................................",
"................................................................",
"............................................................... ",
" .............................................................. ",
" .............................................................. ",
" .............................................................. ",
"  ............................................................  ",
"  ............................................................  ",
"  ...........................................................   ",
"   ..........................................................   ",
"   ..........................................................   ",
"    ........................................................    ",
"    .......................................................     ",
"     ......................................................     ",
"      ....................................................      ",
"      ...................................................       ",
"       ..................................................       ",
"        ................................................        ",
"         ..............................................         ",
"          ............................................          ",
"           ..........................................           ",
"            .......................................             ",
"              ....................................              ",
"               .................................                ",
"                 ..............................                 ",
"                   ..........................                   ",
"                      ....................                      ",
"                         .............                          "};
